<?xml version="1.0" encoding="UTF-8"?>
<svg version="1.1" xmlns="http://www.w3.org/2000/svg" width="512" height="512">
<path d="M0 0 C168.96 0 337.92 0 512 0 C512 168.96 512 337.92 512 512 C343.04 512 174.08 512 0 512 C0 343.04 0 174.08 0 0 Z " fill="#03A9F4" transform="translate(0,0)"/>
<path d="M0 0 C0.99152626 -0.00807831 0.99152626 -0.00807831 2.00308335 -0.01631981 C4.20473242 -0.03055851 6.40577675 -0.02350618 8.60745239 -0.01637268 C10.19140097 -0.02207847 11.77534544 -0.02904354 13.35928345 -0.03717041 C17.65277623 -0.05509539 21.94606455 -0.05393452 26.23958349 -0.04822803 C29.8279594 -0.04513476 33.41629612 -0.05123026 37.00466645 -0.05726677 C45.47288094 -0.07130865 53.94099455 -0.06975394 62.40921021 -0.05836487 C71.13548018 -0.04688782 79.86144266 -0.06095308 88.58767211 -0.08776134 C96.08851496 -0.10993937 103.58926144 -0.11655087 111.09013474 -0.11068493 C115.56615507 -0.10731871 120.04197838 -0.10970793 124.51797104 -0.12693596 C128.72881284 -0.14243627 132.93920036 -0.13841559 137.15002441 -0.11963081 C138.69149821 -0.11595323 140.23300589 -0.11902914 141.77444839 -0.1295166 C150.84911763 -0.18652235 157.93062987 -0.03846175 165.17044067 6.0634613 C165.60743286 6.60357849 166.04442505 7.14369568 166.49465942 7.70018005 C167.16948364 8.49875427 167.16948364 8.49875427 167.85794067 9.3134613 C172.7427545 16.96489534 172.59560614 23.78080265 172.5227356 32.67649841 C172.52188849 34.12578819 172.52236609 35.57507925 172.52406311 37.02436829 C172.52492124 40.94336414 172.50732517 44.86208261 172.48634124 48.7810142 C172.46754397 52.88227466 172.4658216 56.98354198 172.46226501 61.08483887 C172.45295349 68.84430528 172.42835184 76.60364437 172.39821655 84.36305481 C172.3646447 93.1997904 172.34817954 102.03653217 172.33313024 110.87331569 C172.30180145 129.04484257 172.24905838 147.21625106 172.18215942 165.38768005 C171.48090942 165.44826599 170.77965942 165.50885193 170.05715942 165.5712738 C169.10840942 165.65506287 168.15965942 165.73885193 167.18215942 165.82518005 C166.25403442 165.90639099 165.32590942 165.98760193 164.36965942 166.0712738 C160.6331289 166.44217941 156.90805798 166.92194273 153.18215942 167.38768005 C153.18215942 131.08768005 153.18215942 94.78768005 153.18215942 57.38768005 C101.04215942 57.38768005 48.90215942 57.38768005 -4.81784058 57.38768005 C-4.81784058 122.72768005 -4.81784058 188.06768005 -4.81784058 255.38768005 C40.39215942 255.38768005 85.60215942 255.38768005 132.18215942 255.38768005 C133.83215942 259.67768005 135.48215942 263.96768005 137.18215942 268.38768005 C138.60047918 271.16596294 139.96207997 273.71600122 141.61965942 276.32518005 C142.24276001 277.31469666 142.24276001 277.31469666 142.87844849 278.32420349 C149.15732548 287.85407263 157.49152568 296.33837535 167.18215942 302.38768005 C165.39599035 306.93429224 162.26174056 309.37066217 157.9327898 311.48773289 C154.65527261 312.5600661 151.93383098 312.64823672 148.48457336 312.66183472 C147.82441028 312.6670714 147.1642472 312.67230807 146.48407918 312.67770344 C144.27945484 312.69266459 142.0750634 312.69340772 139.87039185 312.69407654 C138.2865917 312.70170066 136.70279524 312.71012859 135.1190033 312.71929932 C130.82137145 312.74122648 126.52381075 312.75004083 122.22612929 312.75512576 C119.53934307 312.75877148 116.85257542 312.76501266 114.16579628 312.77212715 C104.78737191 312.79661557 95.4090028 312.80967221 86.0305481 312.81321716 C77.29687752 312.81685184 68.56355848 312.84674384 59.82999533 312.88862175 C52.32493616 312.92334371 44.81999338 312.93876593 37.31485444 312.9394632 C32.83539352 312.94025537 28.3562908 312.94896641 23.87691307 312.97746086 C19.66193469 313.00367432 15.44761065 313.00582876 11.23258781 312.98980522 C9.6894869 312.98799331 8.14634808 312.99465825 6.6033287 313.01062393 C-2.94096293 313.1033239 -9.34020523 312.43529787 -16.50773335 305.83045101 C-23.56567855 298.46731072 -24.26256964 289.77741168 -24.20552063 279.99508667 C-24.21090617 278.87823158 -24.21629171 277.76137649 -24.22184044 276.6106773 C-24.23609858 272.8844573 -24.2290214 269.15859361 -24.22189331 265.43235779 C-24.22759791 262.75437809 -24.23446228 260.0764236 -24.24269104 257.39845276 C-24.25984831 250.88981239 -24.26072566 244.38126868 -24.25547814 237.87261157 C-24.25143035 232.5815995 -24.2528872 227.2906159 -24.25822639 221.99960518 C-24.25897482 221.24546075 -24.25972324 220.49131633 -24.26049434 219.71431904 C-24.26202587 218.18211769 -24.26356422 216.64991635 -24.26510931 215.11771501 C-24.27882261 200.76436549 -24.27340434 186.41107054 -24.2619241 172.05772228 C-24.25198749 158.9333628 -24.26494181 145.80914421 -24.28885829 132.68480646 C-24.313252 119.19664022 -24.32285683 105.70853961 -24.31620556 92.22035176 C-24.31271464 84.6524995 -24.31493726 77.08475564 -24.33245659 69.51692009 C-24.34718176 63.07645702 -24.34780972 56.63617875 -24.33038568 50.19571929 C-24.32187673 46.91157416 -24.32189389 43.62782684 -24.33503723 40.34368706 C-24.34821097 36.77990935 -24.33673026 33.21702882 -24.31904602 29.65328979 C-24.32865103 28.62050272 -24.33825603 27.58771564 -24.3481521 26.52363199 C-24.27280455 19.14306844 -22.63222584 14.01810853 -18.10690308 8.1806488 C-17.55776245 7.65084412 -17.00862183 7.12103943 -16.44284058 6.57518005 C-15.8988562 6.03248474 -15.35487183 5.48978943 -14.79440308 4.9306488 C-10.05089998 1.22771654 -5.97276213 0.01231264 0 0 Z " fill="#FBFDFE" transform="translate(177.81784057617188,99.61231994628906)"/>
<path d="M0 0 C3.73464755 3.845243 4.50945618 6.33304181 4.56518555 11.64770508 C4.58292778 12.6197438 4.58292778 12.6197438 4.60102844 13.61141968 C4.63383543 15.74780516 4.6368724 17.88291053 4.63671875 20.01953125 C4.64704991 21.52105718 4.65811499 23.02257822 4.6698761 24.52409363 C4.68930331 27.67561789 4.69273579 30.82669879 4.6862793 33.97827148 C4.68033259 37.97163399 4.7242183 41.96263116 4.78216839 45.95551014 C4.81960786 49.06248824 4.82403785 52.16892299 4.81989479 55.27609825 C4.82272594 56.74500659 4.83646681 58.21394409 4.86237144 59.68262672 C5.11659066 75.80966976 -0.6742164 88.57045862 -11 101 C-11.69996094 101.85078125 -12.39992188 102.7015625 -13.12109375 103.578125 C-20.81780596 112.5233235 -29.39524645 119.40894752 -39.6875 125.125 C-40.38810547 125.5279126 -41.08871094 125.9308252 -41.81054688 126.34594727 C-45.9684319 128.54761193 -49.16744945 129.59117866 -53.97485352 128.65429688 C-57.86446384 127.39761747 -61.19363462 125.37611207 -64.625 123.1875 C-65.40407715 122.69902588 -66.1831543 122.21055176 -66.98583984 121.70727539 C-82.15305945 111.96001971 -94.06080828 100.38003566 -102 84 C-102.49138962 83.15733833 -102.49138962 83.15733833 -102.9927063 82.2976532 C-106.88932977 74.94257559 -106.618975 67.37760486 -106.6015625 59.2734375 C-106.60935186 57.7560683 -106.61802434 56.2387034 -106.62753296 54.72134399 C-106.64238101 51.55594678 -106.64192885 48.3909961 -106.63134766 45.22558594 C-106.61972892 41.18236839 -106.65372059 37.14097463 -106.700037 33.0980587 C-106.72958019 29.97001592 -106.73124689 26.84241006 -106.72501755 23.71425247 C-106.72603933 22.22397862 -106.73642774 20.73367882 -106.75664139 19.24354172 C-106.91200209 6.19805534 -106.91200209 6.19805534 -103.14086914 1.61303711 C-98.40295124 -2.93845968 -92.24342099 -3.14725476 -86 -4 C-84.7109375 -4.20367187 -83.421875 -4.40734375 -82.09375 -4.6171875 C-59.10301136 -7.87346752 -21.07587515 -11.36644808 0 0 Z " fill="#FDFEFE" transform="translate(425,279)"/>
<path d="M0 0 C2.765625 -0.37231445 2.765625 -0.37231445 6.25 -0.36328125 C7.4978125 -0.36263672 8.745625 -0.36199219 10.03125 -0.36132812 C11.99578125 -0.3371582 11.99578125 -0.3371582 14 -0.3125 C15.3096875 -0.31572266 16.619375 -0.31894531 17.96875 -0.32226562 C27.73321429 -0.26678571 27.73321429 -0.26678571 30 2 C30.39863496 6.25742138 30.32902541 10.52947574 30.31567383 14.8034668 C30.31251689 16.92614206 30.33595761 19.04741936 30.36132812 21.16992188 C30.36360146 22.51822741 30.36430446 23.86653669 30.36328125 25.21484375 C30.36626221 26.44323975 30.36924316 27.67163574 30.37231445 28.93725586 C30 32 30 32 28.84448242 33.89916992 C26.21693714 35.46735016 24.17367891 35.38865415 21.125 35.3984375 C19.97515625 35.40230469 18.8253125 35.40617187 17.640625 35.41015625 C16.43921875 35.39855469 15.2378125 35.38695312 14 35.375 C12.79859375 35.38660156 11.5971875 35.39820313 10.359375 35.41015625 C8.63460938 35.40435547 8.63460938 35.40435547 6.875 35.3984375 C5.82054687 35.39505371 4.76609375 35.39166992 3.6796875 35.38818359 C1 35 1 35 -0.84448242 33.88330078 C-2.56963123 31.07159617 -2.37155957 28.74606985 -2.36328125 25.46875 C-2.36263672 24.18355469 -2.36199219 22.89835937 -2.36132812 21.57421875 C-2.35302979 20.90567871 -2.34473145 20.23713867 -2.33618164 19.54833984 C-2.31258192 17.50708548 -2.31562347 15.46713745 -2.32226562 13.42578125 C-2.26696034 3.4004405 -2.26696034 3.4004405 0 0 Z " fill="#F7FCFE" transform="translate(287,173)"/>
<path d="M0 0 C2.765625 -0.37231445 2.765625 -0.37231445 6.25 -0.36328125 C7.4978125 -0.36263672 8.745625 -0.36199219 10.03125 -0.36132812 C11.99578125 -0.3371582 11.99578125 -0.3371582 14 -0.3125 C15.3096875 -0.31572266 16.619375 -0.31894531 17.96875 -0.32226562 C27.73321429 -0.26678571 27.73321429 -0.26678571 30 2 C30.39863496 6.25742138 30.32902541 10.52947574 30.31567383 14.8034668 C30.31251689 16.92614206 30.33595761 19.04741936 30.36132812 21.16992188 C30.36360146 22.51822741 30.36430446 23.86653669 30.36328125 25.21484375 C30.36626221 26.44323975 30.36924316 27.67163574 30.37231445 28.93725586 C30 32 30 32 28.84448242 33.89916992 C26.21693714 35.46735016 24.17367891 35.38865415 21.125 35.3984375 C19.97515625 35.40230469 18.8253125 35.40617187 17.640625 35.41015625 C16.43921875 35.39855469 15.2378125 35.38695312 14 35.375 C12.79859375 35.38660156 11.5971875 35.39820313 10.359375 35.41015625 C8.63460937 35.40435547 8.63460937 35.40435547 6.875 35.3984375 C5.82054687 35.39505371 4.76609375 35.39166992 3.6796875 35.38818359 C1 35 1 35 -0.84448242 33.88330078 C-2.56963123 31.07159617 -2.37155957 28.74606985 -2.36328125 25.46875 C-2.36263672 24.18355469 -2.36199219 22.89835937 -2.36132812 21.57421875 C-2.35302979 20.90567871 -2.34473145 20.23713867 -2.33618164 19.54833984 C-2.31258192 17.50708548 -2.31562347 15.46713745 -2.32226562 13.42578125 C-2.26696034 3.4004405 -2.26696034 3.4004405 0 0 Z " fill="#F6FCFE" transform="translate(238,173)"/>
<path d="M0 0 C1.87171875 -0.00386719 1.87171875 -0.00386719 3.78125 -0.0078125 C5.74578125 0.00378906 5.74578125 0.00378906 7.75 0.015625 C9.0596875 0.00789062 10.369375 0.00015625 11.71875 -0.0078125 C12.9665625 -0.00523437 14.214375 -0.00265625 15.5 0 C16.64984375 0.00225586 17.7996875 0.00451172 18.984375 0.00683594 C21.75 0.265625 21.75 0.265625 23.75 2.265625 C24.00878906 5.21484375 24.00878906 5.21484375 24.015625 8.953125 C24.01849518 9.94058716 24.01849518 9.94058716 24.02142334 10.94799805 C24.0227845 12.3400104 24.01909283 13.73203547 24.01074219 15.12402344 C24.000041 17.25745089 24.01063906 19.39003631 24.0234375 21.5234375 C24.02211589 22.87500186 24.01955347 24.2265657 24.015625 25.578125 C24.01336914 26.81175781 24.01111328 28.04539062 24.00878906 29.31640625 C23.75 32.265625 23.75 32.265625 21.75 34.265625 C18.984375 34.52441406 18.984375 34.52441406 15.5 34.53125 C13.62828125 34.53511719 13.62828125 34.53511719 11.71875 34.5390625 C9.75421875 34.52746094 9.75421875 34.52746094 7.75 34.515625 C6.4403125 34.52335937 5.130625 34.53109375 3.78125 34.5390625 C2.5334375 34.53648437 1.285625 34.53390625 0 34.53125 C-1.72476563 34.52786621 -1.72476563 34.52786621 -3.484375 34.52441406 C-6.25 34.265625 -6.25 34.265625 -8.25 32.265625 C-8.50878906 29.31640625 -8.50878906 29.31640625 -8.515625 25.578125 C-8.51753845 24.91981689 -8.5194519 24.26150879 -8.52142334 23.58325195 C-8.5227845 22.1912396 -8.51909283 20.79921453 -8.51074219 19.40722656 C-8.500041 17.27379911 -8.51063906 15.14121369 -8.5234375 13.0078125 C-8.52211589 11.65624814 -8.51955347 10.3046843 -8.515625 8.953125 C-8.51336914 7.71949219 -8.51111328 6.48585937 -8.50878906 5.21484375 C-8.00909747 -0.47975477 -4.9327843 0.00967755 0 0 Z " fill="#FAFDFE" transform="translate(244.25,233.734375)"/>
<path d="M0 0 C1.87171875 -0.00386719 1.87171875 -0.00386719 3.78125 -0.0078125 C5.74578125 0.00378906 5.74578125 0.00378906 7.75 0.015625 C9.0596875 0.00789062 10.369375 0.00015625 11.71875 -0.0078125 C12.9665625 -0.00523437 14.214375 -0.00265625 15.5 0 C16.64984375 0.00225586 17.7996875 0.00451172 18.984375 0.00683594 C21.75 0.265625 21.75 0.265625 23.75 2.265625 C24.00878906 5.21484375 24.00878906 5.21484375 24.015625 8.953125 C24.01849518 9.94058716 24.01849518 9.94058716 24.02142334 10.94799805 C24.0227845 12.3400104 24.01909283 13.73203547 24.01074219 15.12402344 C24.000041 17.25745089 24.01063906 19.39003631 24.0234375 21.5234375 C24.02211589 22.87500186 24.01955347 24.2265657 24.015625 25.578125 C24.01336914 26.81175781 24.01111328 28.04539062 24.00878906 29.31640625 C23.75 32.265625 23.75 32.265625 21.75 34.265625 C17.10042025 34.72738146 12.41983724 34.58961574 7.75 34.578125 C6.4403125 34.59423828 5.130625 34.61035156 3.78125 34.62695312 C2.5334375 34.62759766 1.285625 34.62824219 0 34.62890625 C-1.14984375 34.63188721 -2.2996875 34.63486816 -3.484375 34.63793945 C-4.39703125 34.51507568 -5.3096875 34.39221191 -6.25 34.265625 C-8.65212156 30.66244267 -8.50748287 28.98168685 -8.515625 24.69921875 C-8.51820313 23.40951172 -8.52078125 22.11980469 -8.5234375 20.79101562 C-8.51924805 20.12046143 -8.51505859 19.44990723 -8.51074219 18.7590332 C-8.5000197 16.70689445 -8.51065635 14.65562752 -8.5234375 12.60351562 C-8.52085937 11.31509766 -8.51828125 10.02667969 -8.515625 8.69921875 C-8.51336914 7.51384521 -8.51111328 6.32847168 -8.50878906 5.10717773 C-7.99765925 -0.50512404 -4.83561872 0.00948692 0 0 Z " fill="#FBFDFE" transform="translate(293.25,233.734375)"/>
<path d="M0 0 C1.20269531 -0.00257813 2.40539062 -0.00515625 3.64453125 -0.0078125 C4.90652344 -0.00007812 6.16851562 0.00765625 7.46875 0.015625 C8.73074219 0.00789062 9.99273437 0.00015625 11.29296875 -0.0078125 C12.49566406 -0.00523437 13.69835937 -0.00265625 14.9375 0 C16.04544922 0.00225586 17.15339844 0.00451172 18.29492188 0.00683594 C20.96875 0.265625 20.96875 0.265625 22.96875 2.265625 C23.3678139 6.68406049 23.29778357 11.11682339 23.28442383 15.55126953 C23.28126188 17.75733734 23.30472576 19.96206669 23.33007812 22.16796875 C23.33235088 23.56510247 23.33305472 24.96223981 23.33203125 26.359375 C23.33501221 27.63490234 23.33799316 28.91042969 23.34106445 30.22460938 C23.21820068 31.22814453 23.09533691 32.23167969 22.96875 33.265625 C19.50778844 35.5729327 18.13933903 35.52257218 14.05859375 35.53125 C12.32706055 35.53511719 12.32706055 35.53511719 10.56054688 35.5390625 C9.35462891 35.53132813 8.14871094 35.52359375 6.90625 35.515625 C5.09157227 35.52722656 5.09157227 35.52722656 3.24023438 35.5390625 C2.08716797 35.53648437 0.93410156 35.53390625 -0.25390625 35.53125 C-1.31359619 35.52899414 -2.37328613 35.52673828 -3.46508789 35.52441406 C-6.03125 35.265625 -6.03125 35.265625 -8.03125 33.265625 C-8.29003906 30.22460938 -8.29003906 30.22460938 -8.296875 26.359375 C-8.29878845 25.67887085 -8.3007019 24.9983667 -8.30267334 24.29724121 C-8.30403463 22.85815054 -8.30034205 21.41904756 -8.29199219 19.97998047 C-8.28129128 17.77413413 -8.29188872 15.56910219 -8.3046875 13.36328125 C-8.30336589 11.96614403 -8.30080348 10.56900732 -8.296875 9.171875 C-8.29461914 7.89634766 -8.29236328 6.62082031 -8.29003906 5.30664062 C-7.80755792 -0.36296797 -4.95340705 0.01008547 0 0 Z " fill="#FAFDFE" transform="translate(196.03125,172.734375)"/>
<path d="M0 0 C1.30066406 -0.00128906 2.60132813 -0.00257813 3.94140625 -0.00390625 C4.96258545 -0.00076416 4.96258545 -0.00076416 6.00439453 0.00244141 C8.08503515 0.0077901 10.16545989 0.0024957 12.24609375 -0.00390625 C14.19708984 -0.00197266 14.19708984 -0.00197266 16.1875 0 C17.39083984 0.00112793 18.59417969 0.00225586 19.83398438 0.00341797 C22.59375 0.1328125 22.59375 0.1328125 23.59375 1.1328125 C23.81207989 5.53280195 23.77954146 9.93816062 23.77905273 14.34301758 C23.78123751 16.55765032 23.79938531 18.77178373 23.81835938 20.98632812 C23.82129356 22.38801912 23.82327819 23.7897125 23.82421875 25.19140625 C23.82832764 26.47329834 23.83243652 27.75519043 23.83666992 29.07592773 C23.59375 32.1328125 23.59375 32.1328125 21.59375 34.1328125 C18.91992188 34.37573242 18.91992188 34.37573242 15.5625 34.36328125 C13.75845703 34.36038086 13.75845703 34.36038086 11.91796875 34.35742188 C10.02498047 34.33905273 10.02498047 34.33905273 8.09375 34.3203125 C6.20076172 34.3193457 6.20076172 34.3193457 4.26953125 34.31835938 C-5.12578632 34.27304434 -5.12578632 34.27304434 -7.40625 33.1328125 C-7.43090392 28.59383545 -7.44908789 24.05489707 -7.46118164 19.51586914 C-7.4662214 17.97061484 -7.4730532 16.42536534 -7.48168945 14.88012695 C-7.49377076 12.66356221 -7.49948173 10.44706032 -7.50390625 8.23046875 C-7.50906754 7.5356691 -7.51422882 6.84086945 -7.51954651 6.12501526 C-7.51974277 4.4605192 -7.46814129 2.79615751 -7.40625 1.1328125 C-5.54910943 -0.72432807 -2.48117951 0.00232569 0 0 Z " fill="#FDFEFE" transform="translate(195.40625,233.8671875)"/>
<path d="M0 0 C3.86544091 2.15413891 5.9521908 4.26681718 7.8125 8.375 C8.63026482 13.04307418 8.31728078 17.01755589 6.125 21.25 C3.8125 24.375 3.8125 24.375 1.20703125 25.4765625 C-1.33789434 27.08749147 -1.33789434 27.08749147 -1.63647461 29.34326172 C-1.79832728 31.86298413 -1.83500949 34.35018606 -1.8125 36.875 C-1.8125 38.59379932 -1.825 40.31265594 -1.8515625 42.03125 C-1.84592285 42.79244141 -1.8402832 43.55363281 -1.83447266 44.33789062 C-2.2828167 46.92501559 -3.10177407 47.82173375 -5.1875 49.375 C-7.75 49.25 -7.75 49.25 -10.1875 48.375 C-12.25473714 45.27414429 -12.43247423 44.64568319 -12.3828125 41.14453125 C-12.37636719 40.34208984 -12.36992187 39.53964844 -12.36328125 38.71289062 C-12.34652344 37.87951172 -12.32976562 37.04613281 -12.3125 36.1875 C-12.30347656 35.34251953 -12.29445313 34.49753906 -12.28515625 33.62695312 C-12.26160703 31.54284757 -12.22573647 29.45888783 -12.1875 27.375 C-12.79207031 27.08625 -13.39664062 26.7975 -14.01953125 26.5 C-17.21683758 24.84085726 -18.97193706 23.24924381 -21.1875 20.375 C-22.48858065 15.65168297 -22.64079437 11.70970009 -21.0625 7.0625 C-15.55988556 -0.82458069 -9.29526769 -4.17940208 0 0 Z " fill="#08AAF4" transform="translate(381.1875,307.625)"/>
<path d="M0 0 C2.19496444 -0.00971331 4.38899533 -0.04073972 6.58374023 -0.07226562 C7.97761488 -0.07879511 9.37149622 -0.0840458 10.76538086 -0.08789062 C12.67081665 -0.10190918 12.67081665 -0.10190918 14.61474609 -0.11621094 C17.76928711 0.24023438 17.76928711 0.24023438 19.71875 1.60058594 C20.76928711 3.24023438 20.76928711 3.24023438 20.58178711 5.80273438 C19.76928711 8.24023438 19.76928711 8.24023438 17.76928711 10.24023438 C13.36927374 10.63971909 8.95470549 10.56924999 4.53857422 10.5559082 C2.3434879 10.5527512 0.14975326 10.57619198 -2.04516602 10.6015625 C-3.43904452 10.60383581 -4.83292666 10.60453884 -6.22680664 10.60351562 C-7.49709717 10.60649658 -8.7673877 10.60947754 -10.07617188 10.61254883 C-13.23071289 10.24023438 -13.23071289 10.24023438 -15.18017578 8.9128418 C-16.23071289 7.24023438 -16.23071289 7.24023438 -16.04321289 4.11523438 C-15.77508789 3.16648437 -15.50696289 2.21773438 -15.23071289 1.24023438 C-10.83079333 -0.95972541 -4.89118868 0.01313512 0 0 Z " fill="#0DACF4" transform="translate(261.230712890625,122.759765625)"/>
<path d="M0 0 C2.99559257 1.29011865 3.81502626 2.32340716 6 5 C6.73994373 8.14760681 6.68576465 10.84548261 6 14 C4.20606332 16.87029869 3.01736724 18.49131638 0 20 C-7.13230769 20.70153846 -7.13230769 20.70153846 -10.9375 17.625 C-14.14138495 13.54732825 -14.4417127 11.21220986 -14 6 C-10.28705559 0.30681857 -6.72433463 -1.05846008 0 0 Z " fill="#09ABF4" transform="translate(256,374)"/>
<path d="M0 0 C0.9796875 0.00515625 1.959375 0.0103125 2.96875 0.015625 C3.9484375 0.01046875 4.928125 0.0053125 5.9375 0 C8.46875 0.265625 8.46875 0.265625 10.46875 2.265625 C10.71875 5.265625 10.71875 5.265625 10.46875 8.265625 C8.46875 10.265625 8.46875 10.265625 5.9375 10.53125 C4.9578125 10.52609375 3.978125 10.5209375 2.96875 10.515625 C1.9890625 10.52078125 1.009375 10.5259375 0 10.53125 C-2.53125 10.265625 -2.53125 10.265625 -4.53125 8.265625 C-4.78125 5.265625 -4.78125 5.265625 -4.53125 2.265625 C-2.53125 0.265625 -2.53125 0.265625 0 0 Z " fill="#0EADF4" transform="translate(227.53125,122.734375)"/>
</svg>
